<svg xmlns="http://www.w3.org/2000/svg" height="24px" viewBox="0 -960 960 960" width="24px" fill="#008b8b"><path d="M410.5-682Q381-712 384-752q3-47 32-82.5t64-65.5q36 30 65 65.5t32 81.49q2 41.06-27.35 71.04Q520.31-652 480.15-652q-40.15 0-69.65-30Zm419 374q17.5-17 17.5-40.5T829.5-389Q812-406 789-406t-40 17q-17 17-17 40.5t17 40.5q17 17 40 17t40.5-17ZM697-100H269q-53.5 0-91.25-37.75T140-229v-62h236v-190q0-36.75 24.63-61.38Q425.25-567 462-567h36q36.75 0 61.38 24.62Q584-517.75 584-481v190h115q-9-11-14.5-26.55Q679-333.09 679-349q0-46.04 31.97-78.02 31.98-31.98 78-31.98 46.03 0 78.53 31.98T900-349q0 36-21.5 64T826-248v19q0 53.5-37.75 91.25T697-100Z"/></svg>